<svg version="1.1" id="Layer_1" xmlns="http://www.w3.org/2000/svg" xmlns:xlink="http://www.w3.org/1999/xlink" x="0px" y="0px"
	 width="100%" viewBox="0 0 620 856" enable-background="new 0 0 620 856" xml:space="preserve">
<path fill="#FFB2B2" opacity="1.000000" stroke="none" 
	d="
M73.000008,857.000000 
	C49.004143,857.000000 25.008286,857.000000 1.009321,857.000000 
	C1.006214,571.720093 1.006214,286.440125 1.006214,1.080093 
	C207.577576,1.080093 414.155182,1.080093 620.866394,1.080093 
	C620.866394,286.333282 620.866394,571.666626 620.866394,857.000000 
	C598.251770,857.000000 575.588562,857.000000 552.292664,856.673218 
	C545.915649,836.546814 539.696594,816.869995 534.532410,796.920166 
	C525.668335,762.677490 513.634216,729.357666 507.450500,694.299866 
	C496.061188,629.729248 460.751862,581.871948 402.575012,551.225952 
	C399.850281,549.790649 398.738953,548.263977 398.760559,545.137390 
	C398.857300,531.153931 398.690277,517.168701 399.113251,503.136078 
	C413.483368,503.765930 426.723969,501.588409 438.937958,494.546600 
	C460.761658,481.964386 472.345215,463.063202 474.449738,438.096436 
	C491.814697,437.330048 506.949066,431.300385 521.025879,422.209534 
	C556.061157,399.583679 571.200195,356.517456 555.860779,319.241730 
	C548.062256,300.290649 547.549561,305.085602 556.601990,282.874115 
	C562.318726,268.847382 565.732239,254.281525 564.601379,239.038605 
	C562.324707,208.349396 548.022095,184.052414 523.254517,166.440674 
	C495.829803,146.939545 465.322235,142.350876 432.879883,151.271927 
	C427.073425,152.868591 422.496002,151.683655 418.569397,147.116165 
	C413.792297,141.559357 408.659058,136.303986 403.974152,130.673401 
	C376.984741,98.235970 343.152649,78.971313 300.478027,76.627846 
	C264.785828,74.667809 232.750183,84.547752 204.373291,106.326523 
	C190.133163,117.255569 179.629333,131.399353 169.897903,146.194397 
	C166.361923,151.570251 161.647720,153.819061 155.239761,153.972839 
	C132.718094,154.513275 111.796005,160.686523 93.470627,173.932663 
	C56.639240,200.555450 40.758808,236.336212 48.139114,281.603699 
	C51.023739,299.296722 59.996262,314.356018 70.520798,328.481720 
	C74.157387,333.362640 74.453728,337.689392 71.801239,343.196381 
	C63.788532,359.831970 62.701290,377.084808 68.688782,394.647522 
	C78.791199,424.280304 109.629425,448.463928 148.368622,445.362793 
	C154.074142,473.045319 169.594589,492.008453 196.540848,500.018524 
	C205.705734,502.742889 215.824203,502.259338 225.466705,503.692017 
	C225.408783,517.795166 225.241882,531.450317 225.465698,545.099060 
	C225.531494,549.111511 224.286316,551.241943 220.665680,553.175293 
	C180.789444,574.468567 151.862885,606.031067 133.148636,647.106506 
	C126.133591,662.503723 122.707069,678.931641 118.369522,695.160706 
	C109.182831,729.533020 99.064789,763.655884 89.407318,797.903198 
	C83.858719,817.579712 78.464005,837.299622 73.000008,857.000000 
z"/>
<path fill="#44A1CD" opacity="1.000000" stroke="none" 
	d="
M398.618530,503.184113 
	C398.690277,517.168701 398.857300,531.153931 398.760559,545.137390 
	C398.738953,548.263977 399.850281,549.790649 402.575012,551.225952 
	C460.751862,581.871948 496.061188,629.729248 507.450500,694.299866 
	C513.634216,729.357666 525.668335,762.677490 534.532410,796.920166 
	C539.696594,816.869995 545.915649,836.546814 551.830017,856.673218 
	C532.979126,857.000000 513.958191,857.000000 494.528442,856.640869 
	C499.584229,843.155884 504.403015,829.841858 506.601410,815.427979 
	C505.205505,815.264832 504.400970,815.088989 503.596313,815.088501 
	C474.999481,815.071533 446.402679,815.060730 417.805908,815.101807 
	C416.530579,815.103638 415.255981,815.598572 413.514099,815.863892 
	C404.036835,815.875732 395.026489,815.887634 385.668823,815.677612 
	C384.340759,815.326904 383.360138,815.086121 382.379364,815.085754 
	C336.016632,815.066589 289.653931,815.060791 243.291229,815.102539 
	C241.855148,815.103882 240.419510,815.622803 238.516693,815.888062 
	C228.704437,815.911926 219.359192,815.948242 209.678894,815.742065 
	C208.698395,815.362915 208.053040,815.107178 207.407471,815.106567 
	C179.959473,815.080566 152.511292,815.123718 125.063606,815.024048 
	C120.644562,815.007996 120.404747,817.408691 121.374100,820.513123 
	C125.178696,832.697510 129.113556,844.841187 133.000000,857.000000 
	C113.312439,857.000000 93.624878,857.000000 73.468666,857.000000 
	C78.464005,837.299622 83.858719,817.579712 89.407318,797.903198 
	C99.064789,763.655884 109.182831,729.533020 118.369522,695.160706 
	C122.707069,678.931641 126.133591,662.503723 133.148636,647.106506 
	C151.862885,606.031067 180.789444,574.468567 220.665680,553.175293 
	C224.286316,551.241943 225.531494,549.111511 225.465698,545.099060 
	C225.241882,531.450317 225.408783,517.795166 225.893646,503.654663 
	C283.780060,503.172638 341.199280,503.178375 398.618530,503.184113 
z"/>
<path fill="#1780B2" opacity="1.000000" stroke="none" 
	d="
M413.981049,815.863892 
	C415.255981,815.598572 416.530579,815.103638 417.805908,815.101807 
	C446.402679,815.060730 474.999481,815.071533 503.596313,815.088501 
	C504.400970,815.088989 505.205505,815.264832 506.601410,815.427979 
	C504.403015,829.841858 499.584229,843.155884 494.059784,856.640869 
	C373.979095,857.000000 253.958206,857.000000 133.468658,857.000000 
	C129.113556,844.841187 125.178696,832.697510 121.374100,820.513123 
	C120.404747,817.408691 120.644562,815.007996 125.063606,815.024048 
	C152.511292,815.123718 179.959473,815.080566 207.407471,815.106567 
	C208.053040,815.107178 208.698395,815.362915 209.680466,816.212402 
	C210.018219,828.076477 210.111038,839.229065 209.965439,850.378418 
	C209.920929,853.787170 211.003220,855.165344 214.541321,855.057495 
	C221.192657,854.854675 227.859146,854.851318 234.510223,855.058228 
	C238.080627,855.169250 239.096420,853.729553 239.053436,850.352356 
	C238.907272,838.869934 238.988983,827.384644 238.983673,815.900452 
	C240.419510,815.622803 241.855148,815.103882 243.291229,815.102539 
	C289.653931,815.060791 336.016632,815.066589 382.379364,815.085754 
	C383.360138,815.086121 384.340759,815.326904 385.663025,816.156616 
	C386.002869,828.023743 386.091614,839.191040 385.945007,850.355225 
	C385.900452,853.747192 386.936859,855.175293 390.503418,855.056763 
	C396.829437,854.846497 403.172394,854.848450 409.498566,855.056152 
	C413.053711,855.172852 414.113464,853.762634 414.068115,850.361084 
	C413.914825,838.863647 413.991974,827.363220 413.981049,815.863892 
z"/>
<path fill="#753A23" opacity="1.000000" stroke="none" 
	d="
M148.150177,445.066040 
	C109.629425,448.463928 78.791199,424.280304 68.688782,394.647522 
	C62.701290,377.084808 63.788532,359.831970 71.801239,343.196381 
	C74.453728,337.689392 74.157387,333.362640 70.520798,328.481720 
	C59.996262,314.356018 51.023739,299.296722 48.139114,281.603699 
	C40.758808,236.336212 56.639240,200.555450 93.470627,173.932663 
	C111.796005,160.686523 132.718094,154.513275 155.239761,153.972839 
	C161.647720,153.819061 166.361923,151.570251 169.897903,146.194397 
	C179.629333,131.399353 190.133163,117.255569 204.373291,106.326523 
	C232.750183,84.547752 264.785828,74.667809 300.478027,76.627846 
	C343.152649,78.971313 376.984741,98.235970 403.974152,130.673401 
	C408.659058,136.303986 413.792297,141.559357 418.569397,147.116165 
	C422.496002,151.683655 427.073425,152.868591 432.879883,151.271927 
	C465.322235,142.350876 495.829803,146.939545 523.254517,166.440674 
	C548.022095,184.052414 562.324707,208.349396 564.601379,239.038605 
	C565.732239,254.281525 562.318726,268.847382 556.601990,282.874115 
	C547.549561,305.085602 548.062256,300.290649 555.860779,319.241730 
	C571.200195,356.517456 556.061157,399.583679 521.025879,422.209534 
	C506.949066,431.300385 491.814697,437.330048 474.467865,437.627930 
	C474.045868,415.125946 474.045868,393.194214 474.045868,371.254883 
	C500.905609,371.758301 516.052795,360.327209 516.945618,339.142456 
	C517.341187,329.756500 514.243958,321.386292 507.824768,314.510376 
	C498.799866,304.843262 487.332947,302.280731 473.973083,304.442169 
	C473.973083,299.305176 473.973083,294.780884 473.973083,289.766083 
	C459.731384,295.305389 446.791595,293.325897 434.454071,286.381134 
	C420.718170,278.649231 410.540771,267.357544 403.200439,253.565323 
	C399.960938,247.478424 397.518616,240.967270 394.608795,234.410797 
	C391.901520,238.916763 389.548981,243.500931 386.584381,247.647507 
	C375.477325,263.182953 360.223724,270.034943 341.268463,268.135406 
	C329.873901,266.993500 320.508911,261.532013 312.636749,253.311783 
	C307.667511,248.122849 301.604126,245.571808 294.293610,245.881027 
	C286.554840,246.208359 280.859467,249.888550 276.026367,255.680527 
	C269.217102,263.840759 262.703979,272.374603 255.026917,279.654846 
	C243.334900,290.742523 228.730667,296.858154 212.743347,300.870850 
	C199.161041,300.887054 186.062988,300.859741 172.772400,300.527496 
	C164.501953,297.344849 156.424042,294.467133 147.926025,291.439758 
	C147.926025,295.743225 147.926025,300.153168 147.926025,304.656708 
	C119.184624,298.622284 103.478806,319.135223 103.201790,337.153046 
	C103.055466,346.670502 106.465904,355.259552 113.414047,361.859802 
	C123.030205,370.994446 134.606049,373.699158 148.150177,370.023376 
	C148.150177,395.504730 148.150177,420.285370 148.150177,445.066040 
z"/>
<path fill="#FEC5B7" opacity="1.000000" stroke="none" 
	d="
M213.227600,300.827301 
	C228.730667,296.858154 243.334900,290.742523 255.026917,279.654846 
	C262.703979,272.374603 269.217102,263.840759 276.026367,255.680527 
	C280.859467,249.888550 286.554840,246.208359 294.293610,245.881027 
	C301.604126,245.571808 307.667511,248.122849 312.636749,253.311783 
	C320.508911,261.532013 329.873901,266.993500 341.268463,268.135406 
	C360.223724,270.034943 375.477325,263.182953 386.584381,247.647507 
	C389.548981,243.500931 391.901520,238.916763 394.608795,234.410797 
	C397.518616,240.967270 399.960938,247.478424 403.200439,253.565323 
	C410.540771,267.357544 420.718170,278.649231 434.454071,286.381134 
	C446.791595,293.325897 459.731384,295.305389 473.973083,289.766083 
	C473.973083,294.780884 473.973083,299.305176 473.973083,304.442169 
	C487.332947,302.280731 498.799866,304.843262 507.824768,314.510376 
	C514.243958,321.386292 517.341187,329.756500 516.945618,339.142456 
	C516.052795,360.327209 500.905609,371.758301 474.045868,371.254883 
	C474.045868,393.194214 474.045868,415.125946 474.027740,437.526184 
	C472.345215,463.063202 460.761658,481.964386 438.937958,494.546600 
	C426.723969,501.588409 413.483368,503.765930 399.113251,503.136078 
	C341.199280,503.178375 283.780060,503.172638 225.933884,503.204254 
	C215.824203,502.259338 205.705734,502.742889 196.540848,500.018524 
	C169.594589,492.008453 154.074142,473.045319 148.368622,445.362793 
	C148.150177,420.285370 148.150177,395.504730 148.150177,370.023376 
	C134.606049,373.699158 123.030205,370.994446 113.414047,361.859802 
	C106.465904,355.259552 103.055466,346.670502 103.201790,337.153046 
	C103.478806,319.135223 119.184624,298.622284 147.926025,304.656708 
	C147.926025,300.153168 147.926025,295.743225 147.926025,291.439758 
	C156.424042,294.467133 164.501953,297.344849 172.347885,300.590637 
	C160.970047,301.374725 154.103104,307.401611 154.073639,316.793854 
	C154.043793,326.308319 161.192169,332.471832 172.511322,332.730713 
	C173.624573,332.756165 174.733154,332.985443 176.016571,333.141022 
	C176.994049,340.958252 177.963318,348.538879 178.886276,356.125183 
	C181.051010,373.918182 193.912216,386.466095 211.758026,387.000580 
	C230.068619,387.548950 248.413849,387.561249 266.729248,387.151764 
	C284.705261,386.749878 296.349335,376.428589 300.551147,358.347412 
	C301.857666,352.725250 305.404419,350.151001 311.731171,350.233063 
	C317.708954,350.310577 320.826660,352.818329 322.145691,358.609863 
	C325.854065,374.892517 337.798950,386.554871 352.721863,386.938599 
	C372.697327,387.452301 392.711212,387.503998 412.680359,386.867432 
	C425.984833,386.443298 436.077179,379.080688 440.609222,366.800110 
	C443.885437,357.922546 444.622772,348.031799 445.853333,338.510345 
	C446.398529,334.291779 447.317932,332.765076 451.979523,332.427673 
	C456.124390,332.127655 460.692963,330.165497 463.999481,327.568298 
	C468.912628,323.709076 469.856293,316.342651 467.259247,310.648315 
	C464.252289,304.055145 458.944641,300.990112 451.742340,300.993042 
	C418.084290,301.006622 384.424591,301.196655 350.768829,300.917816 
	C331.991547,300.762238 318.841248,314.254913 317.853821,329.204742 
	C317.785004,330.246857 316.027893,331.884155 314.910492,332.016479 
	C311.686249,332.398193 308.387604,332.151337 305.849091,332.151337 
	C304.433563,327.185913 303.785126,322.806061 301.980621,318.970062 
	C296.213348,306.710144 285.964966,301.154694 272.706421,301.032135 
	C252.881226,300.848785 233.053970,300.884674 213.227600,300.827301 
M313.136932,411.895355 
	C324.638550,408.837006 330.478790,399.882751 327.327698,389.763489 
	C326.349426,386.621887 324.952209,383.528381 323.252594,380.710999 
	C319.724335,374.862366 315.865326,369.213318 312.142273,363.482208 
	C311.418365,363.484589 310.694458,363.487000 309.970551,363.489380 
	C305.464142,371.305420 300.832367,379.052368 296.480194,386.953369 
	C289.654053,399.345673 300.382294,412.416290 313.136932,411.895355 
M294.619751,425.001099 
	C281.369537,424.451233 270.644653,418.919434 262.336731,408.627716 
	C259.248047,404.801453 255.541809,403.841400 252.488800,406.092926 
	C249.241409,408.487823 249.167526,412.458405 252.214691,416.695587 
	C258.661469,425.660065 267.343536,431.559509 277.705444,434.991943 
	C286.826233,438.013275 296.242310,438.941101 305.747925,437.446655 
	C309.725891,436.821228 312.761292,434.399414 311.834839,429.866730 
	C310.966461,425.618164 307.699066,424.249237 303.511353,424.661774 
	C300.871094,424.921875 298.203400,424.903564 294.619751,425.001099 
z"/>
<path fill="#136D97" opacity="1.000000" stroke="none" 
	d="
M238.516678,815.888062 
	C238.988983,827.384644 238.907272,838.869934 239.053436,850.352356 
	C239.096420,853.729553 238.080627,855.169250 234.510223,855.058228 
	C227.859146,854.851318 221.192657,854.854675 214.541321,855.057495 
	C211.003220,855.165344 209.920929,853.787170 209.965439,850.378418 
	C210.111038,839.229065 210.018219,828.076477 210.015503,816.454834 
	C219.359192,815.948242 228.704437,815.911926 238.516678,815.888062 
z"/>
<path fill="#136D97" opacity="1.000000" stroke="none" 
	d="
M413.514099,815.863892 
	C413.991974,827.363220 413.914825,838.863647 414.068115,850.361084 
	C414.113464,853.762634 413.053711,855.172852 409.498566,855.056152 
	C403.172394,854.848450 396.829437,854.846497 390.503418,855.056763 
	C386.936859,855.175293 385.900452,853.747192 385.945007,850.355225 
	C386.091614,839.191040 386.002869,828.023743 386.010345,816.378662 
	C395.026489,815.887634 404.036835,815.875732 413.514099,815.863892 
z"/>
<path fill="#1755A4" opacity="1.000000" stroke="none" 
	d="
M212.743347,300.870850 
	C233.053970,300.884674 252.881226,300.848785 272.706421,301.032135 
	C285.964966,301.154694 296.213348,306.710144 301.980621,318.970062 
	C303.785126,322.806061 304.433563,327.185913 305.849091,332.151337 
	C308.387604,332.151337 311.686249,332.398193 314.910492,332.016479 
	C316.027893,331.884155 317.785004,330.246857 317.853821,329.204742 
	C318.841248,314.254913 331.991547,300.762238 350.768829,300.917816 
	C384.424591,301.196655 418.084290,301.006622 451.742340,300.993042 
	C458.944641,300.990112 464.252289,304.055145 467.259247,310.648315 
	C469.856293,316.342651 468.912628,323.709076 463.999481,327.568298 
	C460.692963,330.165497 456.124390,332.127655 451.979523,332.427673 
	C447.317932,332.765076 446.398529,334.291779 445.853333,338.510345 
	C444.622772,348.031799 443.885437,357.922546 440.609222,366.800110 
	C436.077179,379.080688 425.984833,386.443298 412.680359,386.867432 
	C392.711212,387.503998 372.697327,387.452301 352.721863,386.938599 
	C337.798950,386.554871 325.854065,374.892517 322.145691,358.609863 
	C320.826660,352.818329 317.708954,350.310577 311.731171,350.233063 
	C305.404419,350.151001 301.857666,352.725250 300.551147,358.347412 
	C296.349335,376.428589 284.705261,386.749878 266.729248,387.151764 
	C248.413849,387.561249 230.068619,387.548950 211.758026,387.000580 
	C193.912216,386.466095 181.051010,373.918182 178.886276,356.125183 
	C177.963318,348.538879 176.994049,340.958252 176.016571,333.141022 
	C174.733154,332.985443 173.624573,332.756165 172.511322,332.730713 
	C161.192169,332.471832 154.043793,326.308319 154.073639,316.793854 
	C154.103104,307.401611 160.970047,301.374725 172.540405,300.895569 
	C186.062988,300.859741 199.161041,300.887054 212.743347,300.870850 
M356.887634,311.380890 
	C353.397797,311.438416 349.878510,311.225800 346.423462,311.602539 
	C334.613098,312.890381 326.526459,322.986938 328.232849,334.669403 
	C329.406128,342.702057 331.025635,350.690613 332.875824,358.598236 
	C335.489227,369.768066 344.359314,376.909149 355.878906,377.017395 
	C373.849274,377.186218 391.824585,377.180176 409.794159,376.955353 
	C421.950592,376.803223 431.008423,369.082123 433.092316,357.113617 
	C434.544769,348.771667 435.289581,340.308136 436.424225,331.908875 
	C437.984222,320.360626 430.680786,311.647095 418.966034,311.325714 
	C413.644806,311.179718 408.315308,311.234222 402.991302,311.313599 
	C394.370117,311.442169 385.750336,311.666229 376.446198,311.722809 
	C370.223175,311.633270 364.000183,311.543762 356.887634,311.380890 
M278.308624,312.721893 
	C271.558655,312.287354 264.808716,311.852814 257.119232,311.322266 
	C239.643066,311.314850 222.166336,311.220276 204.690903,311.329498 
	C192.221725,311.407440 184.854874,319.697327 186.196182,331.968414 
	C187.062943,339.898102 188.010391,347.822784 189.130188,355.720184 
	C190.880234,368.062469 200.101807,376.739746 212.429764,376.932648 
	C230.898819,377.221710 249.378647,377.161285 267.848969,376.900452 
	C278.007538,376.756958 286.631470,370.273224 289.210052,360.430267 
	C291.602386,351.298187 293.378296,341.936584 294.528717,332.565948 
	C295.723297,322.835022 287.374054,312.977753 278.308624,312.721893 
M456.754517,321.302856 
	C459.477203,318.583740 459.710907,315.256775 456.985596,312.976685 
	C455.389038,311.640961 451.940674,311.225494 449.921478,311.983704 
	C446.696045,313.194885 445.975586,316.557922 447.638062,319.565125 
	C449.538177,323.002075 452.611664,323.756409 456.754517,321.302856 
M165.551605,320.820557 
	C168.085175,323.157776 171.132553,323.938873 173.486633,321.294617 
	C174.855713,319.756805 175.698944,316.712738 175.187592,314.763977 
	C174.243652,311.166718 170.943039,309.966461 167.598816,311.479797 
	C163.731293,313.229950 163.023712,316.459137 165.551605,320.820557 
z"/>
<path fill="#EE9684" opacity="1.000000" stroke="none" 
	d="
M312.724609,411.919708 
	C300.382294,412.416290 289.654053,399.345673 296.480194,386.953369 
	C300.832367,379.052368 305.464142,371.305420 309.970551,363.489380 
	C310.694458,363.487000 311.418365,363.484589 312.142273,363.482208 
	C315.865326,369.213318 319.724335,374.862366 323.252594,380.710999 
	C324.952209,383.528381 326.349426,386.621887 327.327698,389.763489 
	C330.478790,399.882751 324.638550,408.837006 312.724609,411.919708 
z"/>
<path fill="#EE9684" opacity="1.000000" stroke="none" 
	d="
M295.083862,425.005615 
	C298.203400,424.903564 300.871094,424.921875 303.511353,424.661774 
	C307.699066,424.249237 310.966461,425.618164 311.834839,429.866730 
	C312.761292,434.399414 309.725891,436.821228 305.747925,437.446655 
	C296.242310,438.941101 286.826233,438.013275 277.705444,434.991943 
	C267.343536,431.559509 258.661469,425.660065 252.214691,416.695587 
	C249.167526,412.458405 249.241409,408.487823 252.488800,406.092926 
	C255.541809,403.841400 259.248047,404.801453 262.336731,408.627716 
	C270.644653,418.919434 281.369537,424.451233 295.083862,425.005615 
z"/>
<path fill="#FCFDFE" opacity="1.000000" stroke="none" 
	d="
M278.990295,313.088165 
	C287.374054,312.977753 295.723297,322.835022 294.528717,332.565948 
	C293.378296,341.936584 291.602386,351.298187 289.210052,360.430267 
	C286.631470,370.273224 278.007538,376.756958 267.848969,376.900452 
	C249.378647,377.161285 230.898819,377.221710 212.429764,376.932648 
	C200.101807,376.739746 190.880234,368.062469 189.130188,355.720184 
	C188.010391,347.822784 187.062943,339.898102 186.196182,331.968414 
	C184.854874,319.697327 192.221725,311.407440 204.690903,311.329498 
	C222.166336,311.220276 239.643066,311.314850 257.720367,311.719757 
	C260.017120,317.510468 259.436066,322.640259 256.297852,327.352020 
	C252.007965,333.792969 245.533981,335.602600 238.220657,335.112061 
	C238.220657,340.362518 237.829132,345.199768 238.297775,349.952240 
	C239.466400,361.803070 249.449936,370.736725 261.122589,370.816925 
	C272.846283,370.897461 283.206055,362.245087 284.165131,350.393494 
	C284.884674,341.501740 284.633636,332.452728 283.858093,323.557129 
	C283.543915,319.953400 280.689056,316.571167 278.990295,313.088165 
z"/>
<path fill="#FCFDFD" opacity="1.000000" stroke="none" 
	d="
M377.129974,311.849976 
	C385.750336,311.666229 394.370117,311.442169 402.991302,311.313599 
	C408.315308,311.234222 413.644806,311.179718 418.966034,311.325714 
	C430.680786,311.647095 437.984222,320.360626 436.424225,331.908875 
	C435.289581,340.308136 434.544769,348.771667 433.092316,357.113617 
	C431.008423,369.082123 421.950592,376.803223 409.794159,376.955353 
	C391.824585,377.180176 373.849274,377.186218 355.878906,377.017395 
	C344.359314,376.909149 335.489227,369.768066 332.875824,358.598236 
	C331.025635,350.690613 329.406128,342.702057 328.232849,334.669403 
	C326.526459,322.986938 334.613098,312.890381 346.423462,311.602539 
	C349.878510,311.225800 353.397797,311.438416 357.451172,311.779907 
	C360.084656,317.652832 359.813080,323.054657 356.727600,327.987762 
	C352.537720,334.686646 346.029358,336.970032 338.068878,336.115753 
	C338.068878,340.272461 338.036194,343.904938 338.074677,347.536682 
	C338.221344,361.376465 348.164185,371.925873 361.073730,371.966461 
	C374.454834,372.008514 384.448395,361.744324 384.686523,347.628967 
	C384.776306,342.306335 384.624176,336.979523 384.720459,331.657135 
	C384.858826,324.008057 382.812256,317.244873 377.129974,311.849976 
z"/>
<path fill="#404040" opacity="1.000000" stroke="none" 
	d="
M376.788086,311.786377 
	C382.812256,317.244873 384.858826,324.008057 384.720459,331.657135 
	C384.624176,336.979523 384.776306,342.306335 384.686523,347.628967 
	C384.448395,361.744324 374.454834,372.008514 361.073730,371.966461 
	C348.164185,371.925873 338.221344,361.376465 338.074677,347.536682 
	C338.036194,343.904938 338.068878,340.272461 338.068878,336.115753 
	C346.029358,336.970032 352.537720,334.686646 356.727600,327.987762 
	C359.813080,323.054657 360.084656,317.652832 357.895935,311.816589 
	C364.000183,311.543762 370.223175,311.633270 376.788086,311.786377 
z"/>
<path fill="#404040" opacity="1.000000" stroke="none" 
	d="
M278.649475,312.905029 
	C280.689056,316.571167 283.543915,319.953400 283.858093,323.557129 
	C284.633636,332.452728 284.884674,341.501740 284.165131,350.393494 
	C283.206055,362.245087 272.846283,370.897461 261.122589,370.816925 
	C249.449936,370.736725 239.466400,361.803070 238.297775,349.952240 
	C237.829132,345.199768 238.220657,340.362518 238.220657,335.112061 
	C245.533981,335.602600 252.007965,333.792969 256.297852,327.352020 
	C259.436066,322.640259 260.017120,317.510468 258.190125,311.767761 
	C264.808716,311.852814 271.558655,312.287354 278.649475,312.905029 
z"/>
<path fill="#83A4CE" opacity="1.000000" stroke="none" 
	d="
M456.455139,321.530029 
	C452.611664,323.756409 449.538177,323.002075 447.638062,319.565125 
	C445.975586,316.557922 446.696045,313.194885 449.921478,311.983704 
	C451.940674,311.225494 455.389038,311.640961 456.985596,312.976685 
	C459.710907,315.256775 459.477203,318.583740 456.455139,321.530029 
z"/>
<path fill="#84A5CF" opacity="1.000000" stroke="none" 
	d="
M165.316528,320.514465 
	C163.023712,316.459137 163.731293,313.229950 167.598816,311.479797 
	C170.943039,309.966461 174.243652,311.166718 175.187592,314.763977 
	C175.698944,316.712738 174.855713,319.756805 173.486633,321.294617 
	C171.132553,323.938873 168.085175,323.157776 165.316528,320.514465 
z"/>
</svg>